<svg width="102" height="64" viewBox="0 0 102 64" xmlns="http://www.w3.org/2000/svg" style="background:#fff"><title>cc-discover</title><g fill="none" fill-rule="evenodd"><path d="M102 34.6S73.111 55.198 20.2 64.423H102V34.6M45.315 21.853c0 4.241 3.407 7.683 7.604 7.683s7.603-3.442 7.603-7.683-3.406-7.683-7.603-7.683c-4.197 0-7.604 3.442-7.604 7.683z" fill="#F58220"/><path d="M12.5 25.488c-.89.811-2.035 1.162-3.856 1.162h-.757V17h.757c1.82 0 2.923.33 3.857 1.181.974.875 1.554 2.23 1.554 3.63 0 1.402-.58 2.805-1.554 3.677zM9.21 14.53h-4.14v14.59h4.118c2.185 0 3.765-.524 5.15-1.684a7.367 7.367 0 0 0 2.62-5.604c0-4.307-3.184-7.302-7.748-7.302zM18.257 29.12h2.813V14.53h-2.813zM27.957 20.127c-1.69-.633-2.188-1.051-2.188-1.836 0-.92.886-1.619 2.1-1.619.845 0 1.537.35 2.276 1.179l1.47-1.944c-1.212-1.074-2.663-1.62-4.245-1.62-2.552 0-4.501 1.794-4.501 4.177 0 2.014.908 3.041 3.55 4.006 1.105.392 1.666.653 1.948.832.563.372.846.895.846 1.507 0 1.183-.932 2.057-2.19 2.057-1.342 0-2.423-.678-3.073-1.946l-1.816 1.774c1.296 1.922 2.855 2.778 5 2.778 2.923 0 4.978-1.971 4.978-4.793 0-2.319-.95-3.37-4.155-4.552M33 21.832c0 4.292 3.335 7.617 7.622 7.617 1.212 0 2.251-.243 3.53-.853v-3.349c-1.127 1.14-2.123 1.597-3.401 1.597-2.836 0-4.85-2.078-4.85-5.033 0-2.799 2.077-5.009 4.721-5.009 1.34 0 2.36.481 3.53 1.64v-3.348c-1.234-.632-2.253-.893-3.466-.893-4.265 0-7.686 3.392-7.686 7.63M66.968 24.33l-3.853-9.8H60.04l6.13 14.962h1.514l6.235-14.962h-3.051l-3.9 9.8M75.2 29.12h7.987v-2.47h-5.173v-3.941h4.975v-2.47h-4.975V17h5.173v-2.47h-7.988v14.588M88.683 21.245h-.82v-4.42h.865c1.757 0 2.71.745 2.71 2.165 0 1.465-.953 2.255-2.755 2.255zm5.65-2.41c0-2.732-1.859-4.305-5.108-4.305h-4.179v14.59h2.817v-5.864h.37l3.894 5.863h3.464l-4.55-6.145c2.126-.439 3.293-1.905 3.293-4.138z" fill="#0B1015"/><path d="M95.789 15.792h-.057v-.335h.06c.15 0 .226.055.226.165 0 .112-.08.17-.23.17zm.53-.175c0-.256-.168-.395-.478-.395h-.41v1.285h.301v-.5l.356.5h.378l-.423-.53a.352.352 0 0 0 .277-.36z" fill="#1A1919"/></g></svg>