<svg id="Layer_2" data-name="Layer 2" xmlns="http://www.w3.org/2000/svg" xmlns:xlink="http://www.w3.org/1999/xlink" width="480" height="400" viewBox="0 0 480 400"><defs><style>.cls-1{fill:none}.cls-2{fill:#2575db}.cls-3,.cls-37,.cls-38,.cls-4,.cls-6{fill-rule:evenodd}.cls-3{fill:url(#linear-gradient)}.cls-4{fill:url(#linear-gradient-2)}.cls-5{opacity:.6}.cls-6{fill:url(#New_Pattern_2)}.cls-7{fill:url(#linear-gradient-3)}.cls-8{fill:url(#linear-gradient-4)}.cls-9{fill:url(#linear-gradient-5)}.cls-10{fill:url(#linear-gradient-6)}.cls-11{fill:url(#linear-gradient-7)}.cls-12{fill:url(#linear-gradient-8)}.cls-13{fill:#1f65a6}.cls-14{fill:url(#linear-gradient-9)}.cls-15{fill:url(#linear-gradient-10)}.cls-16{fill:url(#linear-gradient-11)}.cls-17{fill:url(#linear-gradient-12)}.cls-18{fill:url(#linear-gradient-13)}.cls-19{fill:url(#linear-gradient-14)}.cls-20{fill:#e0ada6}.cls-21{fill:#e84855}.cls-22{fill:url(#linear-gradient-15)}.cls-23{fill:url(#linear-gradient-16)}.cls-24{fill:#2f73b8}.cls-25{fill:#2c87fc}.cls-26{fill:#4a3222}.cls-27{fill:#fcb32c}.cls-28{fill:#1b5087}.cls-29{fill:#a6333d}.cls-30{fill:#2e1f15}.cls-31{fill:#c98b83}.cls-32{fill:url(#linear-gradient-17)}.cls-33{fill:url(#linear-gradient-18)}.cls-34{fill:url(#linear-gradient-19)}.cls-35{fill:url(#linear-gradient-20)}.cls-36{fill:url(#linear-gradient-21)}.cls-37{fill:url(#linear-gradient-22)}.cls-38{fill:url(#linear-gradient-23)}.cls-39{fill:url(#linear-gradient-24)}.cls-40{fill:url(#linear-gradient-25)}.cls-41{fill:url(#linear-gradient-26)}.cls-42{fill:url(#linear-gradient-27)}.cls-43{fill:url(#linear-gradient-28)}.cls-44{fill:url(#linear-gradient-29)}.cls-45{fill:url(#linear-gradient-30)}.cls-46{fill:url(#linear-gradient-31)}.cls-47{fill:url(#linear-gradient-32)}.cls-48{fill:url(#linear-gradient-33)}.cls-49{fill:url(#linear-gradient-34)}.cls-50{fill:url(#linear-gradient-35)}.cls-51{fill:url(#linear-gradient-36)}.cls-52{fill:url(#linear-gradient-37)}.cls-53{fill:url(#linear-gradient-38)}.cls-54{fill:url(#linear-gradient-39)}</style><linearGradient id="linear-gradient" x1="258.33" y1="7.63" x2="258.33" y2="325.61" gradientUnits="userSpaceOnUse"><stop offset=".03" stop-color="#2575db"/><stop offset=".96" stop-color="#582994"/></linearGradient><linearGradient id="linear-gradient-2" x1="213.3" y1="-10.67" x2="39.06" y2="142.3" gradientUnits="userSpaceOnUse"><stop offset="0" stop-color="#2575db"/><stop offset="1" stop-color="#582994"/></linearGradient><pattern id="New_Pattern_2" data-name="New Pattern 2" width="80" height="80" patternTransform="matrix(.46 0 0 .46 -1.65 26.21)" patternUnits="userSpaceOnUse" viewBox="0 0 80 80"><path class="cls-1" d="M0 0h80v80H0z"/><path class="cls-2" d="M57.39 90.13v-2.49a7.09 7.09 0 0 1-3.77-1.09l.59-1.65a6.59 6.59 0 0 0 3.55 1.1c1.76 0 2.94-1 2.94-2.42s-1-2.19-2.79-2.94c-2.52-1-4.07-2.12-4.07-4.27a4 4 0 0 1 3.73-4v-2.5h1.53v2.39a6.61 6.61 0 0 1 3.21.86l-.62 1.63a6 6 0 0 0-3.11-.84c-1.9 0-2.58 1.14-2.58 2.09 0 1.28.91 1.92 3.06 2.81 2.55 1 3.83 2.32 3.83 4.52a4.3 4.3 0 0 1-3.9 4.2v2.56zM19.74 71.8v6.92h6.64v1.76h-6.64v7h-1.89v-7H11.2v-1.76h6.65V71.8zm-2.35-21.67v-2.49a7.09 7.09 0 0 1-3.77-1.09l.59-1.65a6.59 6.59 0 0 0 3.55 1.1c1.76 0 2.94-1 2.94-2.42s-1-2.19-2.79-2.94c-2.52-1-4.07-2.12-4.07-4.27a4 4 0 0 1 3.73-4v-2.5h1.53v2.39a6.61 6.61 0 0 1 3.21.86l-.62 1.63a6 6 0 0 0-3.11-.84c-1.9 0-2.58 1.14-2.58 2.09 0 1.28.91 1.92 3.06 2.81 2.55 1 3.83 2.32 3.83 4.52a4.3 4.3 0 0 1-3.9 4.2v2.56zM59.74 31.8v6.92h6.64v1.76h-6.64v7h-1.89v-7H51.2v-1.76h6.65V31.8zm-2.35-21.67V7.64a7.09 7.09 0 0 1-3.77-1.09l.59-1.65A6.59 6.59 0 0 0 57.76 6c1.76 0 2.94-1 2.94-2.42s-1-2.19-2.79-2.94c-2.52-1-4.07-2.12-4.07-4.27a4 4 0 0 1 3.73-4v-2.49h1.53v2.39a6.61 6.61 0 0 1 3.21.86l-.62 1.63a6 6 0 0 0-3.11-.84C56.68-6.09 56-4.95 56-4c0 1.32.87 2 3 2.85 2.55 1 3.83 2.32 3.83 4.52A4.3 4.3 0 0 1 59 7.57v2.56zM19.74-8.2v6.92h6.64V.48h-6.64v7h-1.89v-7H11.2v-1.76h6.65V-8.2z"/></pattern><linearGradient id="linear-gradient-3" x1="282.88" y1="27.32" x2="282.88" y2="87.64" gradientUnits="userSpaceOnUse"><stop offset="0" stop-color="#2674db"/><stop offset=".99" stop-color="#93278f"/></linearGradient><linearGradient id="linear-gradient-4" x1="345.68" y1="27.32" x2="345.68" y2="87.64" xlink:href="#linear-gradient-3"/><linearGradient id="linear-gradient-5" x1="408.48" y1="27.32" x2="408.48" y2="87.64" xlink:href="#linear-gradient-3"/><linearGradient id="linear-gradient-6" x1="229.43" y1="182.55" x2="229.43" y2="373.48" xlink:href="#linear-gradient"/><linearGradient id="linear-gradient-7" x1="355.65" y1="180.58" x2="397.76" y2="180.58" gradientUnits="userSpaceOnUse"><stop offset=".03" stop-color="#9ae5fc"/><stop offset=".99" stop-color="#e0f4ff"/></linearGradient><linearGradient id="linear-gradient-8" x1="356.64" y1="192.65" x2="396.77" y2="192.65" xlink:href="#linear-gradient-7"/><linearGradient id="linear-gradient-9" x1="348.35" y1="69.46" x2="390.46" y2="69.46" xlink:href="#linear-gradient-7"/><linearGradient id="linear-gradient-10" x1="349.34" y1="81.53" x2="389.47" y2="81.53" xlink:href="#linear-gradient-7"/><linearGradient id="linear-gradient-11" x1="337.4" y1="233.71" x2="379.51" y2="233.71" xlink:href="#linear-gradient-7"/><linearGradient id="linear-gradient-12" x1="338.39" y1="245.78" x2="378.51" y2="245.78" xlink:href="#linear-gradient-7"/><linearGradient id="linear-gradient-13" x1="342.67" y1="289.68" x2="384.78" y2="289.68" xlink:href="#linear-gradient-7"/><linearGradient id="linear-gradient-14" x1="343.66" y1="301.75" x2="383.79" y2="301.75" xlink:href="#linear-gradient-7"/><linearGradient id="linear-gradient-15" x1="313.47" y1="122.47" x2="355.58" y2="122.47" xlink:href="#linear-gradient-7"/><linearGradient id="linear-gradient-16" x1="314.46" y1="134.54" x2="354.59" y2="134.54" xlink:href="#linear-gradient-7"/><linearGradient id="linear-gradient-17" x1="336.74" y1="94.99" x2="399.2" y2="94.99" gradientUnits="userSpaceOnUse"><stop offset=".03" stop-color="#419ae0"/><stop offset="1" stop-color="#2674db"/></linearGradient><linearGradient id="linear-gradient-18" x1="336.74" y1="150.14" x2="399.2" y2="150.14" xlink:href="#linear-gradient-17"/><linearGradient id="linear-gradient-19" x1="336.74" y1="206.11" x2="399.2" y2="206.11" xlink:href="#linear-gradient-17"/><linearGradient id="linear-gradient-20" x1="336.74" y1="259.24" x2="399.2" y2="259.24" xlink:href="#linear-gradient-17"/><linearGradient id="linear-gradient-21" x1="336.74" y1="315.2" x2="399.2" y2="315.2" xlink:href="#linear-gradient-17"/><linearGradient id="linear-gradient-22" x1="487.56" y1="252.86" x2="790.55" y2="252.86" gradientTransform="rotate(90 501.34 95.7)" xlink:href="#linear-gradient-17"/><linearGradient id="linear-gradient-23" x1="487.56" y1="205.41" x2="790.55" y2="205.41" gradientTransform="rotate(90 501.34 95.7)" xlink:href="#linear-gradient-17"/><linearGradient id="linear-gradient-24" x1="150.8" y1="287.49" x2="150.8" y2="270.12" xlink:href="#linear-gradient-17"/><linearGradient id="linear-gradient-25" x1="150.8" y1="293.78" x2="150.8" y2="282.33" xlink:href="#linear-gradient-17"/><linearGradient id="linear-gradient-26" x1="148.98" y1="282.92" x2="148.98" y2="265.74" xlink:href="#linear-gradient-17"/><linearGradient id="linear-gradient-27" x1="159.59" y1="199.99" x2="133.51" y2="261.68" gradientUnits="userSpaceOnUse"><stop offset="0" stop-color="#419ae0"/><stop offset=".88" stop-color="#2674db"/></linearGradient><linearGradient id="linear-gradient-28" x1="96.91" y1="186.17" x2="96.91" y2="172.49" xlink:href="#linear-gradient-17"/><linearGradient id="linear-gradient-29" x1="95.42" y1="223.79" x2="95.42" y2="216.83" xlink:href="#linear-gradient-17"/><linearGradient id="linear-gradient-30" x1="101.7" y1="263.82" x2="101.7" y2="256.86" xlink:href="#linear-gradient-17"/><linearGradient id="linear-gradient-31" x1="37.96" y1="129.54" x2="112.09" y2="129.54" xlink:href="#linear-gradient-17"/><linearGradient id="linear-gradient-32" x1="61.17" y1="152.89" x2="97.33" y2="152.89" xlink:href="#linear-gradient-17"/><linearGradient id="linear-gradient-33" x1="48.2" y1="173.47" x2="48.2" y2="176.94" xlink:href="#linear-gradient-17"/><linearGradient id="linear-gradient-34" x1="60.98" y1="209.8" x2="93.51" y2="209.8" xlink:href="#linear-gradient-27"/><linearGradient id="linear-gradient-35" x1="88.14" y1="204.28" x2="114.87" y2="204.28" xlink:href="#linear-gradient-27"/><linearGradient id="linear-gradient-36" x1="94.55" y1="233.84" x2="94.55" y2="258.62" xlink:href="#linear-gradient-27"/><linearGradient id="linear-gradient-37" x1="94.55" y1="236.1" x2="94.55" y2="238.94" xlink:href="#linear-gradient-27"/><linearGradient id="linear-gradient-38" x1="123.04" y1="243.25" x2="123.04" y2="258.74" xlink:href="#linear-gradient-27"/><linearGradient id="linear-gradient-39" x1="123.04" y1="244.67" x2="123.04" y2="246.44" xlink:href="#linear-gradient-27"/></defs><title>scene_checkouts--empty-state</title><path class="cls-3" d="M480 0l-34 122.22-2 7.17-9.72 34.9-2 7.17-9.72 34.89-2 7.17-1.84 6.6-7.41 26.6-1.4 5a175.57 175.57 0 0 1-7.41 19.41c-19.29 42.73-54.53 74.73-96.7 91.53a188.61 188.61 0 0 1-128.91 3.7l-8.19-2.69a193.4 193.4 0 0 1-44.13-20.93q-2.62-1.69-5.21-3.46a192.51 192.51 0 0 1-60.85-68.15q-1.93-3.63-3.69-7.33c-.8-1.65-1.57-3.32-2.31-5q-2.64-6-4.86-12.11a186.19 186.19 0 0 1-6.65-22.9c-.27-1.22-.53-2.44-.78-3.67-.09-.44-.17-.88-.26-1.32a178.78 178.78 0 0 1-3.24-32.63c0-3.26 0-6.52.2-9.8a174.9 174.9 0 0 1 5.63-36.43q1-4 2.28-7.9l10.74-41.46 15.28-58.69 8.32-32h203.55z"/><path class="cls-4" d="M319.69-.58c-8.25 6.72-67.62 17.76-98.55 48.7-27.73 27.73-17.3 57.7-36.78 79.78-17 19.23-51.24.21-78.07 30.55-11-6.4-57.13-24-68.45-25.19l10.93-42 15.47-59.49L72.67-.62l197.46.05h49.56z"/><g class="cls-5"><path class="cls-6" d="M221.14 48.12c-27.73 27.73-17.3 57.7-36.78 79.78-17 19.23-51.24.21-78.07 30.55-11-6.4-57.13-24-68.45-25.19l10.93-42 15.47-59.49L72.67-.62l197.46.05h8.8s-26.86 17.75-57.79 48.69z"/></g><path class="cls-7" d="M254.37 37.94h57.01v49.22h-57.01z"/><path class="cls-8" d="M317.17 37.94h57.01v49.22h-57.01z"/><path class="cls-9" d="M379.97 37.94h57.01v49.22h-57.01z"/><path class="cls-10" d="M418.69 220.12l-7.41 26.6-1.4 5a175.57 175.57 0 0 1-7.41 19.41c-19.29 42.73-54.53 74.73-96.7 91.53a188.61 188.61 0 0 1-128.91 3.7l-8.19-2.69a193.4 193.4 0 0 1-44.13-20.93q-2.62-1.69-5.21-3.46a192.51 192.51 0 0 1-60.85-68.15 188.11 188.11 0 0 1-10.86-24.43 185.8 185.8 0 0 1-7.45-26.6z"/><path class="cls-11" d="M357.17 177.92h39.06a1.52 1.52 0 0 1 1.52 1.52v2.83a1 1 0 0 1-1 1h-40.13a1 1 0 0 1-1-1v-2.83a1.52 1.52 0 0 1 1.52-1.52z"/><path class="cls-12" d="M356.64 183.05h40.13v19.21h-40.13z"/><path class="cls-13" d="M358.11 183.48c11.88 0 23.76 0 35.63.19a.5.5 0 0 0 0-1c-11.87-.2-23.75-.19-35.63-.19a.5.5 0 0 0 0 1z"/><path class="cls-14" d="M349.87 66.8h39.06a1.52 1.52 0 0 1 1.52 1.52v2.83a1 1 0 0 1-1 1h-40.13a1 1 0 0 1-1-1v-2.83a1.52 1.52 0 0 1 1.55-1.52z"/><path class="cls-15" d="M349.34 71.93h40.13v19.21h-40.13z"/><path class="cls-13" d="M350.81 72.35c11.88 0 23.76 0 35.63.2a.5.5 0 0 0 0-1c-11.87-.2-23.75-.2-35.63-.2a.5.5 0 0 0 0 1z"/><path class="cls-16" d="M338.92 231.05H378a1.52 1.52 0 0 1 1.52 1.52v2.83a1 1 0 0 1-1 1h-40.15a1 1 0 0 1-1-1v-2.83a1.52 1.52 0 0 1 1.52-1.52z"/><path class="cls-17" d="M338.39 236.18h40.13v19.21h-40.13z"/><path class="cls-13" d="M339.86 236.61c11.88 0 23.76 0 35.63.19a.5.5 0 0 0 0-1c-11.87-.2-23.75-.19-35.63-.19a.5.5 0 0 0 0 1z"/><path class="cls-18" d="M344.2 287h39.06a1.52 1.52 0 0 1 1.52 1.52v2.83a1 1 0 0 1-1 1h-40.14a1 1 0 0 1-1-1v-2.83a1.52 1.52 0 0 1 1.56-1.52z"/><path class="cls-19" d="M343.66 292.15h40.13v19.21h-40.13z"/><path class="cls-13" d="M345.14 292.57c11.87 0 23.75 0 35.63.2a.5.5 0 0 0 0-1c-11.88-.2-23.76-.2-35.63-.2a.5.5 0 0 0 0 1z"/><path class="cls-20" d="M286 154.12c9.73-5.1 21.38-10.9 30.31-16.6l3.27 5.4c-11 8.44-19.74 16.73-31.72 23z"/><path class="cls-21" d="M288.46 152.25c-1.58 1.15-6.9 3.74-10.21 4.17-.86.11-29.51-28.95-39.3-40.91l1.15 29.92s27.36 23.5 32.11 27.24c3.49 2.75 8.77-.28 12.66-1.87a71.31 71.31 0 0 0 7.62-3.74c.05-4.98-1.44-12.22-4.03-14.81z"/><path class="cls-22" d="M315 119.81h39.06a1.52 1.52 0 0 1 1.52 1.52v2.83a1 1 0 0 1-1 1h-40.14a1 1 0 0 1-1-1v-2.83a1.52 1.52 0 0 1 1.56-1.52z"/><path class="cls-23" d="M314.46 124.93h40.13v19.21h-40.13z"/><path class="cls-20" d="M281 147.06c10.69-2.55 23.41-5.29 33.46-8.62l2.13 6.07C303.83 150 293 155.83 279.88 159z"/><path class="cls-24" d="M238.81 371.39c0 2-.6 11.22-.6 14 5 0 31.11.1 34.12.1 1.64-1.16 2.92-3.83 0-4.74-7.25-2.27-17.15-4-18-7 0 0-1.64-7.48-6.75-7.48s-8.77 1.2-8.77 5.12z"/><path class="cls-24" d="M222.26 371.39c0 2-.59 11.22-.59 14h20.37c1.65-1.16 1.67-5.38-1.25-6.29-3.91-1.23-1.26-4.49-2-5.93 0 0-2.59-7-7.7-7s-8.83 1.3-8.83 5.22z"/><path class="cls-25" d="M267.69 218.91c-3.64 47.36-10 102.93-10.62 156.07h-36.14c-.91-55.27-7.58-108-9.1-156.07z"/><path class="cls-20" d="M264.59 93.34a7.89 7.89 0 0 1-2.57.16.84.84 0 0 0-.41.69c-.06 1.94-.62 6.66-1.86 9-.93 1.75-9 .8-10.13 3.32-1.23 2.74-1.4 8.2 3 18.47-5.35-3.85-19.65-12.28-19.65-12.28a30.53 30.53 0 0 0 3.24-17.46l-.75-5.92a16.4 16.4 0 0 1-.37-3.64c0-8.68 6.12-15.68 13.66-15.68a12.48 12.48 0 0 1 9.25 4.21 15.21 15.21 0 0 1 1.28 1.58c.34.59.71 1.3 1.18 2.15a19.72 19.72 0 0 1 .91 2c1.45 3.77 3 9.86 3.74 11.82a1.24 1.24 0 0 1-.52 1.58z"/><path class="cls-26" d="M236.37 99.27c3-4.13 5.17-11.61 5.17-11.61l1.57-3.36s5.67-2.63 4-8.58h12.17c-.28-1.56-2.35-4.67-6.61-5.59-3.14-.68-13.35-1.49-17.95 6.09-3.18 5.26-2.12 10-.76 13.45a69.67 69.67 0 0 1 2.41 9.6z"/><path class="cls-20" d="M243.16 84.2a1.73 1.73 0 0 0-1.25-.93 3 3 0 0 0-3.34 1.46 4.41 4.41 0 0 0 0 3.82 4.35 4.35 0 0 0 1.4 1.85 2.72 2.72 0 0 0 2.22.49l1-1.46V86.1s.02-1.76-.03-1.9z"/><path class="cls-21" d="M269.21 221.34c19.44-29.15-14.88-97.78-14.88-97.78l-20.64-12.14s-17 9.71-18.52 21.25-3.76 81.14-4.5 101.16c0 0 49.68.8 58.54-12.49z"/><path class="cls-27" d="M224.77 117.93c1.46-1.39 10.16.68 12.79 5.25s4.24 8.48 1.29 20.73c-7.44 30.89-22 46.38-22 46.38l-6.15.23-.46 6.14 6.86.24 3.34 86s34-.36 53-.82c0 0 6.84-77.5.31-105.66-4.49-19.38-15.49-44.64-15.49-44.64l-12.37-.91s-1.14-7.29-5.47-11.39-9.75-5.8-11.08-5.67c-.81.06-4.67 2.85-4.57 4.12z"/><path class="cls-21" d="M264.66 165c-3.65 0-37.09-13.08-46.69-18.45l5.46-22.12c9.95 4.44 40.92 23.87 44.57 23.87s17.61-3 17.61-3c1 3.24 1.85 11.51-.81 15.94 0-.03-16.5 3.76-20.14 3.76z"/><path class="cls-28" d="M243.59 283.89c-.39 29.56-1.87 59.1-2.81 88.66 0 .64 1 .64 1 0 .94-29.56 2.42-59.1 2.81-88.66a.5.5 0 0 0-1 0z"/><path class="cls-29" d="M217.77 128.78a17.7 17.7 0 0 0 .45 15.58 10.42 10.42 0 0 0 4.55 4.29c3.35 1.77 6.72 3.5 10.08 5.26.57.3 1.07-.56.5-.86l-7.74-4.05c-2.16-1.12-4.42-2-5.87-4.07-3.15-4.44-3.26-10.79-1.11-15.63.26-.58-.6-1.09-.86-.5zm20.98 3.41c-2.64-1.69-4.57-3.88-7.66-4.86-.62-.19-.88.77-.27 1 3 .95 4.88 3.12 7.43 4.75.54.35 1-.51.5-.86zm32.75 32.36c3.38-.62 6.75-1.33 10.11-2.08.95-.21 2.71-.27 3.48-.87s1.25-2.4 1.45-3.37c.12-.63-.84-.9-1-.27-.32 1.6-.57 2.77-2.12 3.07-1.32.25-2.62.59-3.93.87-2.76.6-5.52 1.18-8.29 1.69-.63.11-.36 1.07.27 1z"/><path class="cls-28" d="M230.4 380.11c3.36-3 14.75-2.05 12.07 4.43-.24.6.72.86 1 .27 3.11-7.54-9.7-9.07-13.75-5.41-.48.44.23 1.14.71.71z"/><path class="cls-26" d="M261.51 93.35c-1.13-.18-3.85.74-5.3 1.76-1 .75-1.89 2-3.17 2.1a3.74 3.74 0 0 1-1.53-.31c-2-.68-3.63-1.18-4.73-3.74l-.12-.67a33.45 33.45 0 0 1 .23-10.89 11.25 11.25 0 0 0 .34-4.15l-4 5a51.55 51.55 0 0 1-1.41 12.64c-.57 1.59 5.38 9.55 5.38 9.55 2 2.51 4.18 5 7.15 6.16a4.6 4.6 0 0 0 2.75.33c1.66-.43 2.59-2.16 3.2-3.76 1.4-3.67 1.13-6.89 2.33-11.1.22-.95.59-2.65-1.12-2.92z"/><path class="cls-30" d="M259.2 97.77a4.07 4.07 0 0 0 3.35-1.77c.3-.57-.56-1.07-.86-.5a3.11 3.11 0 0 1-2.49 1.32c-.64 0-.64 1 0 1z"/><path class="cls-30" d="M259.33 96.33a1.74 1.74 0 0 1-2.2.65c-.58-.29-1.08.57-.51.87a2.78 2.78 0 0 0 3.57-1 .5.5 0 0 0-.86-.51z"/><path class="cls-30" d="M257.14 96.28a1.27 1.27 0 0 1-1.66.84c-.63-.15-.9.81-.27 1a2.28 2.28 0 0 0 2.89-1.53c.14-.63-.83-.9-1-.27z"/><path class="cls-20" d="M314 138.58c2-.59 4.39-2 7-3s5.21.91 7.93 2.09a1.86 1.86 0 0 1-2.18 1c-.87-.17-3.79-1-3.77-.16s1.87 1.86 2.6 2.35c1.8 1.21 3.65 2.17 5.53 3.24a1.79 1.79 0 0 1-1.6 1.26c-.29 1.24-3.35 2.51-3.77 2.64a7.14 7.14 0 0 1-5.31-.4c-1.64-.81-3.74-3.18-5.55-2.41a29.92 29.92 0 0 1-4.88 1.61z"/><path class="cls-29" d="M265 147.88a8.69 8.69 0 0 0 2.34 1.12 3.88 3.88 0 0 0 1.72-.16c.63-.13.36-1.09-.26-1a2.8 2.8 0 0 1-1.4.1 9.33 9.33 0 0 1-1.89-1 .5.5 0 0 0-.51.86z"/><path class="cls-31" d="M292.16 155.57c4-1.68 7.93-3.41 11.89-5.13l5.59-2.41c1.92-.81 4.1-2.11 6.22-2.28.64-.06.65-1.06 0-1a16.88 16.88 0 0 0-5 1.71L305 149c-4.44 1.92-8.88 3.87-13.34 5.76-.59.25-.08 1.11.5.86z"/><path class="cls-13" d="M315.94 125.36c11.87 0 23.75 0 35.62.2a.5.5 0 0 0 0-1c-11.87-.2-23.75-.2-35.62-.2a.5.5 0 0 0 0 1z"/><rect class="cls-32" x="336.74" y="91.34" width="62.46" height="7.3" rx="1.46" ry="1.46"/><rect class="cls-33" x="336.74" y="146.49" width="62.46" height="7.3" rx="1.46" ry="1.46"/><rect class="cls-34" x="336.74" y="202.46" width="62.46" height="7.3" rx="1.46" ry="1.46"/><rect class="cls-35" x="336.74" y="255.59" width="62.46" height="7.3" rx="1.46" ry="1.46"/><rect class="cls-36" x="336.74" y="311.55" width="62.46" height="7.3" rx="1.46" ry="1.46"/><path class="cls-37" d="M344.18 81.93a3.64 3.64 0 0 1 3.65 3.65v299.34h-7.3V85.58a3.64 3.64 0 0 1 3.65-3.65z"/><path class="cls-38" d="M391.63 81.93a3.64 3.64 0 0 1 3.65 3.65v299.34H388V85.58a3.65 3.65 0 0 1 3.63-3.65z"/><path class="cls-13" d="M347.42 92.22v5.31a.5.5 0 0 0 1 0v-5.31a.5.5 0 0 0-1 0zm-7.21 0v5.31a.5.5 0 0 0 1 0v-5.31a.5.5 0 0 0-1 0zm54.49 0v5.31a.5.5 0 0 0 1 0v-5.31a.5.5 0 0 0-1 0zm-7.21 0v5.31a.5.5 0 0 0 1 0v-5.31a.5.5 0 0 0-1 0zm-40.07 55.16v5.31a.5.5 0 0 0 1 0v-5.31a.5.5 0 0 0-1 0zm-7.21 0v5.31a.5.5 0 0 0 1 0v-5.31a.5.5 0 0 0-1 0zm54.49 0v5.31a.5.5 0 0 0 1 0v-5.31a.5.5 0 0 0-1 0zm-7.21 0v5.31a.5.5 0 0 0 1 0v-5.31a.5.5 0 0 0-1 0zm-40.07 56.01v5.31a.5.5 0 0 0 1 0v-5.31a.5.5 0 0 0-1 0zm-7.21 0v5.31a.5.5 0 0 0 1 0v-5.31a.5.5 0 0 0-1 0zm54.49 0v5.31a.5.5 0 0 0 1 0v-5.31a.5.5 0 0 0-1 0zm-7.21 0v5.31a.5.5 0 0 0 1 0v-5.31a.5.5 0 0 0-1 0zm-40.07 53.18v5.31a.5.5 0 0 0 1 0v-5.31a.5.5 0 0 0-1 0zm-7.21 0v5.31a.5.5 0 0 0 1 0v-5.31a.5.5 0 0 0-1 0zm54.49 0v5.31a.5.5 0 0 0 1 0v-5.31a.5.5 0 0 0-1 0zm-7.21 0v5.31a.5.5 0 0 0 1 0v-5.31a.5.5 0 0 0-1 0zm-40.07 55.73v5.31a.5.5 0 0 0 1 0v-5.31a.5.5 0 0 0-1 0zm-7.21 0v5.31a.5.5 0 0 0 1 0v-5.31a.5.5 0 0 0-1 0zm54.49 0v5.31a.5.5 0 0 0 1 0v-5.31a.5.5 0 0 0-1 0zm-7.21 0v5.31a.5.5 0 0 0 1 0v-5.31a.5.5 0 0 0-1 0z"/><circle class="cls-39" cx="150.8" cy="281.27" r="6.22"/><circle class="cls-40" cx="150.8" cy="281.27" r="4.1"/><path class="cls-41" d="M150.76 282.92a1.72 1.72 0 0 1-1.63-1.18l-3.64-11.12h3.61l3.29 10.05a1.72 1.72 0 0 1-1.63 2.25z"/><path class="cls-13" d="M146.84 276c.54 1.7 1.16 3.37 1.77 5a2.64 2.64 0 0 0 1.86 2 2.13 2.13 0 0 0 2.54-2 5.28 5.28 0 0 0-.42-1.33c-.42-1.19-.73-2.4-1.23-3.57-.25-.59-1.11-.08-.86.51.53 1.26.92 2.59 1.33 3.9.21.67.2 1.16-.63 1.51a1.21 1.21 0 0 1-1.4-.62 13.51 13.51 0 0 1-.85-2.33c-.4-1.1-.79-2.2-1.14-3.31-.2-.61-1.16-.35-1 .26z"/><path class="cls-13" d="M146.36 280.68a4.58 4.58 0 0 0 6.44 4.41c3.15-1.4 3.1-5.63.64-7.67-.49-.41-1.2.29-.71.7 1.84 1.53 2.23 4.7-.13 6-2.61 1.39-5.23-.65-5.24-3.4a.5.5 0 0 0-1 0z"/><path class="cls-42" d="M144.15 185.22h6.87v86.37h-6.87z"/><path class="cls-43" d="M157.15 177.33v7.88c0 .54-.71 1-1.58 1H36.67c0-3.26 0-6.52.2-9.8h118.7c.87-.04 1.58.38 1.58.92z"/><path class="cls-44" d="M150.93 219.29v4c0 .27-.67.48-1.49.48H41c-.27-1.22-.53-2.44-.78-3.67-.09-.44-.17-.88-.26-1.32h109.48c.82.02 1.49.22 1.49.51z"/><path class="cls-45" d="M150.93 259.32v4c0 .26-.67.48-1.49.48H54.79c-.8-1.65-1.57-3.32-2.31-5h97c.78.03 1.45.2 1.45.52z"/><path class="cls-13" d="M41.84 186.52c30-.32 60-.08 89.95-.07h18.65a.5.5 0 0 0 0-1c-30 .08-59.94-.07-89.92 0-6.22 0-12.45 0-18.68.09a.5.5 0 0 0 0 1zm102.73 32.39c2 0 3.91 0 5.87-.07.64 0 .64-1 0-1-2 .1-3.91.08-5.87.07a.5.5 0 0 0 0 1zm0 5.61c2 0 3.91 0 5.87-.07.64 0 .64-1 0-1-2 .1-3.91.08-5.87.07a.5.5 0 0 0 0 1zm0 34.7c2 0 3.91 0 5.87-.07.64 0 .64-1 0-1-2 .1-3.91.08-5.87.07a.5.5 0 0 0 0 1zm0 5.61c2 0 3.91 0 5.87-.07.64 0 .64-1 0-1-2 .1-3.91.08-5.87.07a.5.5 0 0 0 0 1zM146 272c1.07.1 2.15.06 3.22.08a.5.5 0 0 0 0-1c-1.07 0-2.15 0-3.22-.08-.65-.05-.64.95 0 1z"/><rect class="cls-46" x="37.96" y="98.98" width="74.13" height="61.12" rx="3.58" ry="3.58"/><path class="cls-13" d="M105.44 99.86c3.7.25 3 3.62 3 6.23 0 2.15-.07 4.3-.09 6.45v17c0 5.65.08 11.32.13 17l.06 6.78a23.25 23.25 0 0 1 0 2.64c-.24 2.42-2.09 3.37-4.34 3.49-.64 0-.65 1 0 1 1.8-.1 4.16-.75 5-2.51.65-1.29.28-3.22.27-4.62q-.08-7.17-.13-14.32c-.08-10.34-.18-20.7 0-31 .06-3.73 1.27-8.76-3.91-9.1-.64 0-.64 1 0 1z"/><path class="cls-47" d="M97.33 175.37a1 1 0 0 1-1 1H67.14a5.89 5.89 0 0 1-6-6.43l2.49-33.19a7.86 7.86 0 0 1 15.67 0l2.41 32.1c.75 4.75 5 5.59 9.7 5.59h4.89a1 1 0 0 1 1.03.93z"/><path class="cls-13" d="M62.61 159.42c.48-4.22.76-8.47 1.1-12.7.3-3.71.18-7.92 1.18-11.53.87-3.16 4.23-6.23 7.66-5.51 3.62.77 5.06 3.93 5.31 7.31.52 6.94.51 13.92.79 20.86 0 .64 1 .65 1 0-.18-4.46-.3-8.92-.46-13.39-.13-3.52.34-7.86-1-11.19a7.08 7.08 0 0 0-11.64-2.51c-3.38 3.2-3.15 7.81-3.52 12.12-.48 5.51-.79 11-1.42 16.54-.07.63.93.63 1 0z"/><path class="cls-13" d="M78.65 157.44a79.6 79.6 0 0 0 1.17 13.17 7 7 0 0 0 6.39 5.82c.63.08.63-.92 0-1-4.53-.58-5.4-4.15-5.85-8-.38-3.31-.58-6.64-.71-10a.5.5 0 0 0-1 0zm1.28-15.98c.18 5.84.29 11.71.77 17.53.06.64 1.06.64 1 0-.48-5.82-.59-11.69-.77-17.53 0-.64-1-.64-1 0z"/><path class="cls-13" d="M67.72 176.57c9.32.24 18.71.25 28 0 .64 0 .64-1 0-1-9.32.25-18.71.24-28 0a.5.5 0 0 0 0 1zM42.73 154v2.44a.5.5 0 0 0 1 0V154a.5.5 0 0 0-1 0zm1.91 0v2.44a.5.5 0 0 0 1 0V154a.5.5 0 0 0-1 0zm1.91 0v2.44a.5.5 0 0 0 1 0V154a.5.5 0 0 0-1 0z"/><path class="cls-48" d="M45.5 173.78h5.4a2.49 2.49 0 0 1 2.49 2.49v.12H43v-.12a2.49 2.49 0 0 1 2.5-2.49z"/><path class="cls-13" d="M47.58 173.72a4.46 4.46 0 0 0-1.71.13 2.52 2.52 0 0 0-1.35 2.24c0 .65 1 .65 1 0s.35-1.32 1-1.37h1.09a.5.5 0 0 0 0-1z"/><path class="cls-13" d="M43.88 176.89h8.83a.5.5 0 0 0 0-1h-8.83a.5.5 0 0 0 0 1z"/><path class="cls-49" d="M61 200.74h32.51v13.49a4.62 4.62 0 0 1-4.62 4.62H65.6a4.62 4.62 0 0 1-4.6-4.62v-13.49z"/><path class="cls-13" d="M65.64 219.39c7.31 0 14.62-.14 21.93 0a.5.5 0 0 0 0-1c-7.31-.1-14.62 0-21.93 0a.5.5 0 0 0 0 1z"/><path class="cls-50" d="M113.19 205.5L90 206.59a1.76 1.76 0 0 1-1.85-1.77 1.76 1.76 0 0 1 1.67-1.76L113 202a1.78 1.78 0 0 1 1.86 1.77 1.77 1.77 0 0 1-1.67 1.73z"/><path class="cls-13" d="M89.57 202.64a2.24 2.24 0 0 0-1.15 4 3.5 3.5 0 0 0 2.32.33l2.44-.15c.64 0 .65-1 0-1-1.11.07-2.24.21-3.36.21A1.2 1.2 0 0 1 88.5 205a1.17 1.17 0 0 1 1.07-1.33c.64 0 .64-1 0-1z"/><path class="cls-51" d="M116.68 238.72A22.14 22.14 0 0 1 103.52 259H85.58a22.15 22.15 0 0 1-13.15-20.23z"/><rect class="cls-52" x="71.4" y="236.66" width="46.31" height="2.32" rx="1.16" ry="1.16"/><path class="cls-13" d="M86 259.13c5.39-.2 10.81-.09 16.19 0a.5.5 0 0 0 0-1c-5.38-.08-10.8-.19-16.19 0-.64 0-.64 1 0 1zm-12.16-19.66c13.81 0 27.64-.23 41.45 0a.5.5 0 0 0 0-1c-13.81-.19-27.64 0-41.45 0a.5.5 0 0 0 0 1z"/><path class="cls-53" d="M136.87 246.3a13.84 13.84 0 0 1-8.23 12.7h-11.21a13.84 13.84 0 0 1-8.22-12.65z"/><rect class="cls-54" x="108.56" y="245.01" width="28.95" height="1.45" rx=".72" ry=".72"/><path class="cls-13" d="M117.69 259.25c3.37-.12 6.76-.06 10.12 0a.5.5 0 0 0 0-1c-3.36-.05-6.75-.11-10.12 0-.64 0-.64 1 0 1zM111.65 247c8.12 0 16.26-.12 24.38 0a.5.5 0 0 0 0-1c-8.12-.1-16.26 0-24.38 0a.5.5 0 0 0 0 1zm-2.85.26a13.53 13.53 0 0 0 1.62 5.9c.31.57 1.17.06.87-.51a12.1 12.1 0 0 1-1.49-5.39c0-.64-1-.64-1 0z"/></svg>