<svg width="64" height="64" viewBox="0 0 64 64" xmlns="http://www.w3.org/2000/svg" style="background:#fff"><title>chase</title><g fill="#0F6FAB" fill-rule="evenodd"><path d="M58.144 19.61h-1.482c-10.79 0-21.579-.025-32.368.028-1.415.007-1.907-.363-1.868-1.83.096-3.676.027-7.357.034-11.036.004-2.066.608-2.705 2.624-2.71 5.22-.013 10.441-.026 15.662.024.635.007 1.429.226 1.873.642 5.052 4.716 10.05 9.488 15.06 14.249.13.124.219.293.465.632M44.67 57.992c-.032-.63-.072-1.06-.072-1.49-.004-10.806.024-21.611-.033-32.416-.008-1.46.438-1.873 1.865-1.837 3.633.09 7.27.025 10.904.032 2.104.004 2.602.469 2.607 2.506.013 5.328.034 10.657-.031 15.983-.009.722-.305 1.612-.786 2.128-4.515 4.844-9.098 9.625-13.665 14.42-.192.2-.424.364-.79.674M6.392 44.61h1.64c10.642 0 21.284-.002 31.926 0 1.96.001 1.961.009 1.963 1.994.001 3.581.01 7.162-.004 10.742-.007 1.955-.646 2.6-2.586 2.604-5.321.01-10.642.023-15.963-.022-.587-.006-1.323-.215-1.735-.601-4.931-4.627-9.815-9.305-14.708-13.973-.134-.129-.222-.306-.533-.744M19.502 6.27c.035.674.082 1.149.082 1.623.004 10.652-.025 21.304.034 31.955.009 1.507-.414 1.983-1.936 1.94-3.681-.104-7.367-.023-11.05-.04-1.841-.008-2.374-.557-2.377-2.43-.01-5.326-.025-10.652.024-15.977.006-.634.22-1.428.634-1.87 4.59-4.908 9.236-9.761 13.87-14.625.16-.167.362-.292.719-.576"/></g></svg>